<svg xmlns="http://www.w3.org/2000/svg" viewBox="0 0 400 400" fill="none">
  <path d="M50 100Q80 60 100 50Q80 70 70 100Q60 130 50 100" fill="#0C8B6842"/>
  <path d="M50 100Q20 70 10 50Q30 60 40 90Q48 110 50 100" fill="#6CBFAA3D"/>

  <path d="M300 250Q330 210 350 200Q330 220 320 250Q310 280 300 250" fill="#0C8B6836"/>
  <path d="M300 250Q270 220 260 200Q280 210 290 240Q298 260 300 250" fill="#6CBFAA33"/>

  <path d="M150 350Q170 320 185 315Q175 330 165 350Q155 370 150 350" fill="#0C8B683B"/>
  <path d="M380 80Q400 55 415 50Q405 65 395 85Q385 105 380 80" fill="#6CBFAA40"/>

  <circle cx="200" cy="150" r="3" fill="#0C8B6833"/>
  <circle cx="120" cy="280" r="2.5" fill="#6CBFAA33"/>
  <circle cx="340" cy="350" r="2" fill="#0C8B6828"/>
</svg>
